# xmcd
#
# Track frame offsets:
#	150
#	13826
#	27527
#	39407
#	52879
#	63045
#	75578
#	88258
#	100252
#	109071
#
# Disc length: 1578 seconds
# Revision: 0
# Processed by: cddbd v1.5.2PL0 Copyright (c) Steve Scherf et al.
# Submitted via: dBpowerAMP V12.0
#
DISCID=7506280a
DTITLE=George Jones - I Am What I Am
DYEAR=1900
DGENRE=
TTITLE0=He Stopped Loving Her Today
TTITLE1=I've Aged Twenty Years In Five
TTITLE2=Brother To The Blues
TTITLE3=If Drinkin' don't Kill Me
TTITLE4=His Lovin' Her Is Gettin' In My Way
TTITLE5=I'm Not Ready Yet
TTITLE6=I'm The One She Missed Him With Today
TTITLE7=Good Hearted Woman
TTITLE8=A Hard Act To Follow
TTITLE9=Bone Dry
EXTD=
EXTT0=
EXTT1=
EXTT2=
EXTT3=
EXTT4=
EXTT5=
EXTT6=
EXTT7=
EXTT8=
EXTT9=
PLAYORDER=
